<svg width="522" height="160" viewBox="0 0 522 160" fill="none" xmlns="http://www.w3.org/2000/svg">
<path d="M0 39.8573C0 17.8447 17.8447 0 39.8573 0H120.143C142.155 0 160 17.8447 160 39.8573V120.143C160 142.155 142.155 160 120.143 160H39.8573C17.8447 160 0 142.155 0 120.143V39.8573Z" fill="url(#paint0_linear_6558_774)"/>
<path d="M59.4523 17.9325C54.4528 16.6794 50.4021 21.4652 51.495 26.5021C53.436 35.4484 55.8249 48.3582 55.6807 57.156C55.5413 65.6526 53.3615 76.686 51.547 84.4834C50.4139 89.3524 54.066 94.1405 59.0651 94.1405H102.315C106.473 94.1405 109.874 90.7642 109.572 86.6171C107.104 52.6888 87.992 25.0855 59.4523 17.9325Z" fill="url(#paint1_linear_6558_774)"/>
<mask id="mask0_6558_774" style="mask-type:alpha" maskUnits="userSpaceOnUse" x="20" y="98" width="119" height="41">
<path d="M135.325 98.8633H24.0917C21.4983 98.8633 19.9587 101.762 21.4107 103.91L40.6892 132.442C43.3422 136.368 47.7715 138.721 52.5099 138.721H107.024C111.777 138.721 116.217 136.354 118.867 132.408L138.011 103.903C139.455 101.753 137.915 98.8633 135.325 98.8633Z" fill="url(#paint2_linear_6558_774)"/>
</mask>
<g mask="url(#mask0_6558_774)">
<path d="M51.4609 11.457V101.308H118.393C118.393 53.5628 91.6205 14.4646 51.4609 11.457Z" fill="#A59DFE"/>
<path d="M141.543 94.6543H18.1475L45.0791 142.968H114.775L141.543 94.6543Z" fill="url(#paint3_linear_6558_774)"/>
<path d="M109.305 83.6262C109.305 116.8 82.4128 143.692 49.2395 143.692C16.0661 143.692 -10.8262 116.8 -10.8262 83.6262C-10.8262 50.4529 16.0661 23.5605 49.2395 23.5605C82.4128 23.5605 109.305 50.4529 109.305 83.6262Z" fill="url(#paint4_linear_6558_774)"/>
</g>
<g filter="url(#filter0_d_6558_774)">
<path d="M114.074 33.4043C114.074 31.7474 115.417 30.4043 117.074 30.4043H121.639C125.165 30.4043 127.707 31.1919 129.265 32.7672C130.823 34.3426 131.602 36.975 131.602 40.6645V49.2457C131.602 51.8574 132.012 53.7022 132.832 54.78C133.652 55.8164 135.046 56.3346 137.014 56.3346C138.372 56.3346 139.474 57.436 139.474 58.7946V61.3987C139.474 62.7574 138.372 63.8587 137.014 63.8587C135.046 63.8587 133.652 64.3977 132.832 65.4755C132.012 66.5119 131.602 68.3359 131.602 70.9476V79.5288C131.602 83.2184 130.823 85.8508 129.265 87.4261C127.707 89.0014 125.165 89.789 121.639 89.789H117.074C115.417 89.789 114.074 88.4459 114.074 86.789V85.6529C114.074 84.0565 115.368 82.7624 116.965 82.7624C119.466 82.7624 121.024 82.4307 121.639 81.7674C122.254 81.1456 122.561 79.5081 122.561 76.855V70.6367C122.561 67.7763 123.094 65.5584 124.16 63.9831C125.218 62.4202 126.962 61.1429 129.391 60.1513C129.426 60.1371 129.449 60.1032 129.449 60.0656C129.449 60.028 129.426 59.9941 129.391 59.9799C126.962 58.9886 125.218 57.732 124.16 56.2102C123.094 54.6349 122.561 52.4171 122.561 49.5567V43.3384C122.561 40.6852 122.254 39.0477 121.639 38.4259C121.024 37.7626 119.466 37.431 116.965 37.431C115.368 37.431 114.074 36.1368 114.074 34.5405V33.4043Z" fill="#FEFEFE"/>
<path d="M99.0144 78.2855C95.7877 78.2855 93.1719 75.6697 93.1719 72.4429V72.3132C93.1719 69.0865 95.7877 66.4707 99.0144 66.4707C102.241 66.4707 104.857 69.0865 104.857 72.3132V72.4429C104.857 75.6697 102.241 78.2855 99.0144 78.2855Z" fill="#FEFEFE"/>
<path d="M80.2839 78.2874C77.0572 78.2874 74.4414 75.6716 74.4414 72.4449V72.3152C74.4414 69.0884 77.0572 66.4727 80.2839 66.4727C83.5107 66.4727 86.1265 69.0884 86.1265 72.3152V72.4449C86.1265 75.6716 83.5107 78.2874 80.2839 78.2874Z" fill="#FEFEFE"/>
<path d="M61.5544 78.2855C58.3277 78.2855 55.7119 75.6697 55.7119 72.4429V72.3132C55.7119 69.0865 58.3277 66.4707 61.5544 66.4707C64.7812 66.4707 67.397 69.0865 67.397 72.3132V72.4429C67.397 75.6697 64.7812 78.2855 61.5544 78.2855Z" fill="#FEFEFE"/>
<path d="M43.5187 30.4043C45.1756 30.4043 46.5187 31.7474 46.5187 33.4043V34.602C46.5187 36.1644 45.2522 37.431 43.6897 37.431C41.1887 37.431 39.6102 37.7626 38.9542 38.4259C38.3392 39.0477 38.0317 40.6852 38.0317 43.3384V49.5567C38.0317 52.4171 37.4987 54.6349 36.4327 56.2102C35.3751 57.732 33.6314 58.9886 31.2016 59.9799C31.1668 59.9941 31.1437 60.028 31.1437 60.0656C31.1437 60.1032 31.1668 60.1371 31.2016 60.1513C33.6314 61.1429 35.3751 62.4202 36.4327 63.9831C37.4987 65.5584 38.0317 67.7763 38.0317 70.6367V76.855C38.0317 79.5081 38.3392 81.1456 38.9542 81.7674C39.6102 82.4307 41.1887 82.7624 43.6897 82.7624C45.2522 82.7624 46.5187 84.0289 46.5187 85.5914V86.789C46.5187 88.4459 45.1756 89.789 43.5187 89.789H38.9542C35.4282 89.789 32.8862 89.0014 31.3282 87.4261C29.7702 85.8508 28.9912 83.2184 28.9912 79.5288V70.9476C28.9912 68.3359 28.5812 66.5119 27.7612 65.4755C26.9412 64.3977 25.5472 63.8587 23.5792 63.8587C22.2205 63.8587 21.1191 62.7573 21.1191 61.3987V58.7946C21.1191 57.436 22.2205 56.3346 23.5792 56.3346C25.5472 56.3346 26.9412 55.8164 27.7612 54.78C28.5812 53.7022 28.9912 51.8574 28.9912 49.2457V40.6645C28.9912 36.975 29.7702 34.3426 31.3282 32.7672C32.8862 31.1919 35.4282 30.4043 38.9542 30.4043H43.5187Z" fill="#FEFEFE"/>
</g>
<path d="M510.272 96.2774C510.272 98.1627 510.777 99.4757 511.787 100.216C512.864 100.957 514.48 101.327 516.635 101.327C517.981 101.327 519.463 101.226 521.079 101.024V114.255C517.712 114.592 514.918 114.76 512.696 114.76C507.04 114.76 502.831 113.515 500.071 111.023C497.31 108.465 495.93 103.852 495.93 97.1864V76.5824H487.143V63.7554H495.93V52.0394L510.272 47.1914V63.7554H520.877V76.5824H510.272V96.2774Z" fill="#A977F7"/>
<path d="M456.342 115.771C451.561 115.771 447.117 114.593 443.01 112.236C438.902 109.812 435.637 106.547 433.213 102.439C430.856 98.332 429.678 93.888 429.678 89.1074C429.678 84.2594 430.856 79.8154 433.213 75.7754C435.637 71.668 438.902 68.436 443.01 66.0794C447.117 63.6554 451.561 62.4434 456.342 62.4434C461.122 62.4434 465.566 63.6554 469.674 66.0794C473.781 68.436 477.013 71.668 479.37 75.7754C481.794 79.8154 483.006 84.2594 483.006 89.1074C483.006 93.888 481.794 98.332 479.37 102.439C477.013 106.547 473.781 109.812 469.674 112.236C465.566 114.593 461.122 115.771 456.342 115.771ZM456.342 101.328C459.708 101.328 462.57 100.15 464.927 97.7934C467.351 95.3694 468.563 92.474 468.563 89.1074C468.563 85.7407 467.351 82.8454 464.927 80.4214C462.57 77.9974 459.708 76.7854 456.342 76.7854C452.975 76.7854 450.08 77.9974 447.656 80.4214C445.299 82.8454 444.121 85.7407 444.121 89.1074C444.121 92.474 445.299 95.3694 447.656 97.7934C450.08 100.15 452.975 101.328 456.342 101.328Z" fill="#A977F7"/>
<path d="M397.296 62.3426C402.481 62.3426 406.992 63.4873 410.83 65.7766C414.735 68.066 417.732 71.2643 419.819 75.3716C421.906 79.4116 422.95 83.9903 422.95 89.1076C422.95 94.225 421.906 98.8036 419.819 102.844C417.732 106.816 414.735 109.947 410.83 112.237C406.992 114.526 402.481 115.671 397.296 115.671C391.977 115.671 387.566 113.853 384.065 110.217V114.257H369.622V43.5566H384.065V67.8976C387.634 64.1943 392.044 62.3426 397.296 62.3426ZM396.993 102.339C400.427 102.339 403.255 101.059 405.477 98.5006C407.699 95.942 408.81 92.811 408.81 89.1076C408.81 85.4716 407.699 82.3743 405.477 79.8156C403.255 77.257 400.427 75.9776 396.993 75.9776C393.29 75.9776 390.226 77.1896 387.802 79.6136C385.445 82.0376 384.267 85.135 384.267 88.9056C384.267 92.811 385.445 96.043 387.802 98.6016C390.226 101.093 393.29 102.339 396.993 102.339Z" fill="#A977F7"/>
<path d="M344.504 114.255V63.755H358.846V114.255H344.504ZM351.877 52.948C349.79 52.948 348.006 52.241 346.524 50.827C345.11 49.3457 344.403 47.5613 344.403 45.474C344.403 43.3867 345.11 41.636 346.524 40.222C348.006 38.7407 349.79 38 351.877 38C353.897 38 355.614 38.7407 357.028 40.222C358.51 41.636 359.25 43.3867 359.25 45.474C359.25 47.5613 358.51 49.3457 357.028 50.827C355.614 52.241 353.897 52.948 351.877 52.948Z" fill="#171717"/>
<path d="M310.593 62.4434C315.778 62.4434 320.289 63.588 324.127 65.8774C328.032 68.1667 330.995 71.3314 333.015 75.3714C335.102 79.344 336.146 83.889 336.146 89.0064C336.146 94.1237 335.102 98.7024 333.015 102.742C330.928 106.782 327.965 109.981 324.127 112.337C320.289 114.627 315.778 115.771 310.593 115.771C305.543 115.771 301.2 114.021 297.564 110.519V134.456H283.121V63.7564H297.564V67.6954C301.065 64.194 305.408 62.4434 310.593 62.4434ZM310.189 102.136C313.69 102.136 316.552 100.857 318.774 98.2984C320.996 95.7397 322.107 92.6424 322.107 89.0064C322.107 85.303 320.996 82.172 318.774 79.6134C316.552 77.0547 313.69 75.7754 310.189 75.7754C306.486 75.7754 303.456 77.0547 301.099 79.6134C298.742 82.1047 297.564 85.2694 297.564 89.1074C297.564 92.9454 298.742 96.0764 301.099 98.5004C303.456 100.924 306.486 102.136 310.189 102.136Z" fill="#171717"/>
<path d="M276.478 114.257H260.318L255.369 100.925H229.21L224.261 114.257H208L234.159 43.5566H250.42L276.478 114.257ZM242.34 65.5746L234.462 86.5826H250.117L242.34 65.5746Z" fill="#171717"/>
<defs>
<filter id="filter0_d_6558_774" x="12.2652" y="22.727" width="136.062" height="77.0926" filterUnits="userSpaceOnUse" color-interpolation-filters="sRGB">
<feFlood flood-opacity="0" result="BackgroundImageFix"/>
<feColorMatrix in="SourceAlpha" type="matrix" values="0 0 0 0 0 0 0 0 0 0 0 0 0 0 0 0 0 0 127 0" result="hardAlpha"/>
<feOffset dy="1.1766"/>
<feGaussianBlur stdDeviation="4.42695"/>
<feComposite in2="hardAlpha" operator="out"/>
<feColorMatrix type="matrix" values="0 0 0 0 0.152941 0 0 0 0 0.00784314 0 0 0 0 0.282353 0 0 0 0.5 0"/>
<feBlend mode="normal" in2="BackgroundImageFix" result="effect1_dropShadow_6558_774"/>
<feBlend mode="normal" in="SourceGraphic" in2="effect1_dropShadow_6558_774" result="shape"/>
</filter>
<linearGradient id="paint0_linear_6558_774" x1="80" y1="0" x2="80" y2="160" gradientUnits="userSpaceOnUse">
<stop stop-color="#5905A5"/>
<stop offset="1" stop-color="#22023F"/>
</linearGradient>
<linearGradient id="paint1_linear_6558_774" x1="79.4684" y1="16.2866" x2="79.4684" y2="94.1405" gradientUnits="userSpaceOnUse">
<stop stop-color="#AD7DF8"/>
<stop offset="1" stop-color="#7E52C2"/>
</linearGradient>
<linearGradient id="paint2_linear_6558_774" x1="120.504" y1="98.8633" x2="97.2244" y2="145.28" gradientUnits="userSpaceOnUse">
<stop stop-color="#0257E8"/>
<stop offset="1" stop-color="#013182"/>
</linearGradient>
<linearGradient id="paint3_linear_6558_774" x1="79.8453" y1="94.6543" x2="79.8453" y2="142.968" gradientUnits="userSpaceOnUse">
<stop stop-color="#8F67FD"/>
<stop offset="1" stop-color="#3D4997"/>
</linearGradient>
<linearGradient id="paint4_linear_6558_774" x1="95.9209" y1="97.3368" x2="36.5898" y2="146.793" gradientUnits="userSpaceOnUse">
<stop stop-color="#AA94FC"/>
<stop offset="1" stop-color="#A96AFF"/>
</linearGradient>
</defs>
</svg>
